<?xml version="1.0" encoding="UTF-8"?>
<svg width="25px" height="25px" viewBox="0 0 25 25" version="1.1" xmlns="http://www.w3.org/2000/svg" xmlns:xlink="http://www.w3.org/1999/xlink">
    <!-- Generator: Sketch 49.1 (51147) - http://www.bohemiancoding.com/sketch -->
    <title>dribbble</title>
    <desc>Created with Sketch.</desc>
    <defs></defs>
    <g id="dribbble" stroke="none" stroke-width="1" fill="none" fill-rule="evenodd">
        <g transform="translate(1.000000, 1.000000)" fill="#000" fill-rule="nonzero" id="Dribbble">
            <path d="M16.9886515,19.645129 C16.8885755,19.0528545 16.3652025,16.16991 15.0763805,12.6311365 C18.2477215,12.124052 20.994414,12.993533 21.1972715,13.059792 C20.7604515,15.796696 19.193038,18.156329 16.9886515,19.645129 L16.9886515,19.645129 L16.9886515,19.645129 Z M11.500676,21.3218885 C9.1231845,21.3218885 6.943141,20.4767475 5.243194,19.0704335 C5.373023,19.175907 5.4636325,19.242166 5.4636325,19.242166 C5.4636325,19.242166 7.3461515,15.13681 13.170871,13.10712 C13.192509,13.0990065 13.2154995,13.0935975 13.2371375,13.0868365 C14.6192745,16.6769945 15.188628,19.6843435 15.3346855,20.5430065 C14.156759,21.04333 12.8598225,21.3218885 11.500676,21.3218885 L11.500676,21.3218885 L11.500676,21.3218885 Z M1.678309,11.499324 C1.678309,11.3952025 1.6837185,11.2924335 1.686423,11.1896645 C1.860881,11.193721 6.7132355,11.303251 11.7698005,9.790111 C12.0510965,10.340467 12.320221,10.9016405 12.566355,11.4601095 C12.436526,11.495267 12.3080495,11.5344815 12.179573,11.577753 C6.879579,13.28967 4.191039,18.0576165 4.191039,18.0576165 C4.191039,18.0576165 4.195096,18.061673 4.195096,18.0630255 C2.6303875,16.3227115 1.678309,14.0225765 1.678309,11.499324 L1.678309,11.499324 L1.678309,11.499324 Z M7.309637,2.6192605 C7.4408185,2.7936975 9.2570705,5.2560995 10.9570175,8.276971 C6.2412535,9.530484 2.1475865,9.4804515 1.889281,9.476395 C2.526254,6.433888 4.5697065,3.911988 7.309637,2.6192605 L7.309637,2.6192605 L7.309637,2.6192605 Z M9.1475275,1.9647835 C9.1475275,1.9661355 9.146175,1.967488 9.146175,1.967488 C9.146175,1.967488 9.1340035,1.9701925 9.1164225,1.9728965 C9.1272415,1.9701925 9.1367085,1.96884 9.1475275,1.9647835 L9.1475275,1.9647835 L9.1475275,1.9647835 Z M17.9867115,4.1310485 C17.9623685,4.1675585 16.564003,6.297313 12.8557655,7.6860485 C11.1774565,4.6016225 9.332804,2.1513905 9.185394,1.95667 C9.927853,1.776824 10.7027695,1.679464 11.500676,1.679464 C13.9863585,1.679464 16.257012,2.6070905 17.9867115,4.1310485 L17.9867115,4.1310485 L17.9867115,4.1310485 Z M21.3189865,11.4019635 C21.176986,11.3708625 17.8528255,10.6555355 14.4786265,11.080134 C14.4083025,10.912458 14.339331,10.74343 14.266302,10.574402 C14.062092,10.0930095 13.8416535,9.6170265 13.6131005,9.1491565 C17.4917385,7.5657005 19.065914,5.2899055 19.0848475,5.262861 C20.4615745,6.9355635 21.295996,9.0720795 21.3189865,11.4019635 L21.3189865,11.4019635 L21.3189865,11.4019635 Z M22.76739,9.1856665 C22.615923,8.4473515 22.3887225,7.718502 22.095255,7.023458 C21.8085495,6.3419365 21.4501675,5.684755 21.0349855,5.070845 C20.625213,4.4623435 20.1518785,3.889 19.632563,3.3697455 C19.111895,2.8491385 18.5398365,2.377212 17.929911,1.9661355 C17.3159285,1.54965 16.65867,1.194015 15.9770685,0.9046385 C15.2819425,0.612558 14.55436,0.385384 13.815958,0.235287 C13.058623,0.0797815 12.2796495,0 11.500676,0 C10.7203505,0 9.941377,0.0797815 9.184042,0.235287 C8.44564,0.385384 7.7180575,0.612558 7.0229315,0.9046385 C6.34133,1.194015 5.6840715,1.54965 5.0687365,1.9661355 C4.4601635,2.377212 3.888105,2.8491385 3.367437,3.3697455 C2.8481215,3.889 2.376139,4.4623435 1.9650145,5.070845 C1.5498325,5.684755 1.1914505,6.3419365 0.904745,7.023458 C0.6099255,7.718502 0.384077,8.4473515 0.23261,9.1856665 C0.0784385,9.9415605 0,10.720442 0,11.499324 C0,12.28091 0.0784385,13.059792 0.23261,13.817038 C0.384077,14.555353 0.6099255,15.2828505 0.904745,15.976542 C1.1914505,16.6580635 1.5498325,17.3179495 1.9650145,17.9318595 C2.376139,18.540361 2.8481215,19.111 3.367437,19.632959 C3.888105,20.1522135 4.4601635,20.622788 5.0687365,21.0352165 C5.6840715,21.45035 6.34133,21.8073375 7.0229315,22.0953615 C7.7180575,22.3901465 8.44564,22.614616 9.184042,22.764713 C9.941377,22.921571 10.7203505,23 11.500676,23 C12.2796495,23 13.058623,22.921571 13.815958,22.764713 C14.55436,22.614616 15.2819425,22.3901465 15.9770685,22.0953615 C16.65867,21.8073375 17.3159285,21.45035 17.929911,21.0352165 C18.5398365,20.622788 19.111895,20.1522135 19.632563,19.632959 C20.1518785,19.111 20.625213,18.540361 21.0349855,17.9318595 C21.4501675,17.3179495 21.8085495,16.6580635 22.095255,15.976542 C22.3887225,15.2828505 22.615923,14.555353 22.76739,13.817038 C22.9215615,13.059792 23,12.28091 23,11.499324 C23,10.720442 22.9215615,9.9415605 22.76739,9.1856665 L22.76739,9.1856665 L22.76739,9.1856665 Z"></path>
        </g>
    </g>
</svg>