<?xml version="1.0" encoding="UTF-8"?>
<svg width="25px" height="25px" viewBox="0 0 25 25" version="1.1" xmlns="http://www.w3.org/2000/svg" xmlns:xlink="http://www.w3.org/1999/xlink">
    <!-- Generator: Sketch 49.1 (51147) - http://www.bohemiancoding.com/sketch -->
    <title>github</title>
    <desc>Created with Sketch.</desc>
    <defs>
        <polygon id="path-1" points="0 0 24 0 24 23 0 23"></polygon>
    </defs>
    <g id="github" stroke="none" stroke-width="1" fill="none" fill-rule="evenodd">
        <g id="Page-1" transform="translate(0.000000, 1.000000)">
            <mask id="mask-2" fill="white">
                <use xlink:href="#path-1"></use>
            </mask>
            <g id="Clip-2"></g>
            <path d="M11.9992634,0 C5.37311234,0 0,5.27898358 0,11.7921187 C0,17.0008895 3.43793738,21.4199482 8.20699816,22.9798288 C8.80736648,23.0876814 9.02615101,22.7235886 9.02615101,22.4108886 C9.02615101,22.1314854 9.01583794,21.3895468 9.00994475,20.4058448 C5.67219153,21.1181058 4.9679558,18.8249727 4.9679558,18.8249727 C4.42209945,17.4627011 3.63535912,17.1007798 3.63535912,17.1007798 C2.54585635,16.368975 3.71786372,16.3834518 3.71786372,16.3834518 C4.92228361,16.4674176 5.5558011,17.5987834 5.5558011,17.5987834 C6.62615101,19.4004275 8.36390424,18.8799847 9.04825046,18.5788662 C9.1572744,17.81666 9.46666667,17.2969411 9.80994475,17.0023372 C7.14548803,16.7048379 4.34401473,15.6929061 4.34401473,11.174681 C4.34401473,9.88768897 4.81178637,8.83522193 5.57937385,8.01076529 C5.45561694,7.71254216 5.04383057,6.51385893 5.69650092,4.89028014 C5.69650092,4.89028014 6.70423573,4.57323711 8.99668508,6.09909716 C9.95359116,5.83706617 10.9804788,5.70677451 12.0007366,5.70170761 C13.0195212,5.70677451 14.0464088,5.83706617 15.0047882,6.09909716 C17.2957643,4.57323711 18.3012891,4.89028014 18.3012891,4.89028014 C18.9561694,6.51385893 18.5443831,7.71254216 18.4206262,8.01076529 C19.1896869,8.83522193 19.654512,9.88768897 19.654512,11.174681 C19.654512,15.7044875 16.8486188,16.7012187 14.1753223,16.9929272 C14.6062615,17.35702 14.9900552,18.0765195 14.9900552,19.1767602 C14.9900552,20.7525654 14.9753223,22.0243567 14.9753223,22.4108886 C14.9753223,22.7264839 15.1911602,23.0934721 15.8003683,22.9783811 C20.5642726,21.4156051 24,16.9994418 24,11.7921187 C24,5.27898358 18.6268877,0 11.9992634,0" id="Fill-1" fill="#000" mask="url(#mask-2)"></path>
        </g>
    </g>
</svg>