<?xml version="1.0" encoding="UTF-8"?>
<svg width="25px" height="25px" viewBox="0 0 25 25" version="1.1" xmlns="http://www.w3.org/2000/svg" xmlns:xlink="http://www.w3.org/1999/xlink">
    <style type="text/css">
        svg:hover g {
        fill: #0077B5;
        transition: ease-in-out all 0.1s;
        }
    </style>
    <g id="Symbols" stroke="none" stroke-width="1" fill="none" fill-rule="evenodd">
        <g id="linkedin" fill-rule="nonzero" fill="#000">
            <g transform="translate(2.000000, 3.000000)" id="LinkedIn">
                <path d="M22,20 L17.1377,20 L17.1377,12.9692 C17.1377,11.128898 16.3771165,9.872575 14.7046095,9.872575 C13.4253295,9.872575 12.7138995,10.720369 12.382761,11.537427 C12.258584,11.8306975 12.277987,12.2392265 12.277987,12.6477555 L12.277987,20 L7.4609595,20 C7.4609595,20 7.523048,7.5456235 7.4609595,6.4135235 L12.277987,6.4135235 L12.277987,8.5458155 C12.562559,7.613498 14.1018345,6.282897 16.558208,6.282897 C19.605715,6.282897 22,8.2371775 22,12.445412 L22,20 L22,20 Z M2.589605,4.7140935 L2.5585605,4.7140935 C1.00635,4.7140935 0,3.675482 0,2.358968 C0,1.0168405 1.0361005,0 2.6193555,0 C4.201317,0 5.1740355,1.0142795 5.20508,2.355126 C5.20508,3.67164 4.201317,4.7140935 2.589605,4.7140935 L2.589605,4.7140935 L2.589605,4.7140935 Z M0.5549155,6.4135235 L4.8428975,6.4135235 L4.8428975,20 L0.5549155,20 L0.5549155,6.4135235 L0.5549155,6.4135235 Z"></path>
            </g>
        </g>
    </g>
</svg>